<?xml version="1.0" encoding="UTF-8" standalone="no"?>
<svg
   xmlns:dc="http://purl.org/dc/elements/1.1/"
   xmlns:cc="http://creativecommons.org/ns#"
   xmlns:rdf="http://www.w3.org/1999/02/22-rdf-syntax-ns#"
   xmlns:svg="http://www.w3.org/2000/svg"
   xmlns="http://www.w3.org/2000/svg"
   viewBox="0 0 191.99989 191.99989"
   id="svg5"
   height="191.99989"
   width="191.99989"
   version="1.1">
  <metadata
     id="metadata11">
    <rdf:RDF>
      <cc:Work
         rdf:about="">
        <dc:format>image/svg+xml</dc:format>
        <dc:type
           rdf:resource="http://purl.org/dc/dcmitype/StillImage" />
      </cc:Work>
    </rdf:RDF>
  </metadata>
  <defs
     id="defs9" />
  <g
     id="Layer1000">
    <path
       id="path2"
       style="fill:#000000;fill-rule:evenodd"
       d="m 164.4887,46.3584 c 0.5172,-0.7059 3.8057,-2.8173 4.8864,-3.8872 1.5725,-1.5566 2.6651,-2.6811 4.0927,-4.3979 2.1408,-2.5746 5.1663,-7.5747 6.0209,-11.2431 -1.6339,0.3806 -8.4268,4.1007 -10.7479,5.1011 -2.1821,0.9406 -9.4927,3.1661 -12.1766,3.3894 -1.7229,-1.1536 -3.0161,-2.9901 -4.7527,-4.3039 -1.5743,-1.1912 -3.9185,-2.3987 -5.7066,-3.3501 C 142.4783,25.7372 137.2312,24 131.6585,24 h -3.6792 C 110.6389,24 93.734,41.2054 93.734,58.5283 v 2.8301 l 0.8748,7.0719 C 87.311,68.4339 76.0108,66.2665 70.3649,64.3501 66.5065,63.0406 63.3868,61.8377 59.9946,60.5696 56.3481,59.2063 53.788,57.4313 50.5981,56.098 44.9168,53.7233 38.4676,48.106 33.7339,44.6604 31.5889,43.099 19.6745,30.8168 19.583,30.7924 c -0.4078,1.5273 -2.1061,4.4543 -2.9028,7.0029 -0.6647,2.1268 -1.6255,5.1258 -1.6255,7.9971 v 6.5094 c 0,5.071 3.2993,12.7546 5.3766,15.8499 1.386,2.0653 2.8288,4.1025 4.5975,5.8741 1.0239,1.0257 5.3347,4.5288 5.5919,4.8798 -2.0846,0 -7.2687,-0.619 -8.641,-1.2646 -0.7747,-0.3644 -6.7688,-2.6611 -7.2081,-2.6976 v 1.1321 c 0,9.081 4.1256,17.9884 8.5557,22.5763 3.005,3.1118 4.5741,4.7804 8.3641,7.202 2.0239,1.2931 8.2201,4.4028 11.0991,4.467 v 0.5659 l -8.4761,0.9916 -0.2974,-0.1425 -6.506,-0.3387 c 0.1136,5.3145 8.5072,14.5679 11.934,17.2692 5.028,3.9636 12.5199,7.6922 21.4588,7.6922 -1.8765,2.8022 -13.662,9.0003 -17.5808,10.4381 -5.9457,2.1816 -14.9684,5.1279 -22.8909,5.1279 h -6.7925 l -5.9397,-0.3372 c 2.6956,2.4004 9.2005,5.1412 12.888,6.9738 2.2426,1.1145 4.5649,2.2725 6.977,2.9287 1.066,0.29 6.7385,2.2278 7.3011,2.6045 l 10.6808,2.3119 0.108,-0.3718 0.781,0.6482 18.4177,1.2845 c 10.6248,0.49 31.5582,-4.1916 37.9438,-7.5454 2.1962,-1.1535 5.4048,-2.353 7.8278,-3.4928 2.1258,-1.0001 5.3997,-2.7523 7.2845,-4.0364 4.2502,-2.8957 9.2428,-6.0932 12.8355,-9.5229 9.0077,-8.5986 13.4614,-13.8753 20.3806,-24.6194 1.5128,-2.3491 2.773,-4.7743 4.0231,-7.2977 1.1907,-2.4034 2.3089,-5.4047 3.5669,-7.7539 0.8575,-1.6016 2.3886,-6.3907 2.9787,-8.342 0.4337,-1.4343 1.9896,-7.7474 2.5113,-8.5265 0,-2.4843 1.2659,-9.882 1.8111,-12.9058 0.707,-3.9212 0.453,-9.4877 0.453,-13.981 0.4588,-0.6851 4.2158,-3.606 5.0944,-4.2452 1.6042,-1.1674 3.1271,-2.9864 4.5987,-4.458 2.99,-2.9901 5.7795,-6.4552 8.1371,-9.976 -0.87,0.0724 -7.6088,2.5472 -9.377,3.0758 -3.0399,0.9089 -6.6657,2.0185 -10.4343,2.0185 z" />
  </g>
</svg>
